<svg width="1331" height="1331" viewBox="0 0 1331 1331" fill="none" xmlns="http://www.w3.org/2000/svg">
<rect width="1331" height="1331" rx="154" fill="#D9D9D9"/>
<g clip-path="url(#clip0_2049_65)">
<path d="M189.645 650.205H527.164V1024.02C527.164 1109.04 457.996 1178 372.706 1178H300.938C215.648 1178 146.48 1109.04 146.48 1024.02V693.238C146.48 669.907 165.722 650.724 189.125 650.724L189.645 650.205Z" fill="black"/>
<path d="M628.056 656.427H1183.48V1001.2C1183.48 1098.68 1103.91 1178 1006.14 1178H724.267C671.221 1178 628.056 1134.97 628.056 1082.08V656.427Z" fill="black"/>
<path d="M527 650L476 755.5L527 870C527 845.035 549.387 824.752 577.5 824.752C605.613 824.752 628 845.035 628 870L685.5 765L628 650H527Z" fill="black"/>
<path d="M1055.14 516.442C983.905 516.442 926.286 573.473 926.286 643.984V741.973C926.286 812.484 983.905 869.515 1055.14 869.515C1126.38 869.515 1184 812.484 1184 741.973V643.984C1184 573.473 1126.38 516.442 1055.14 516.442Z" fill="black"/>
<path d="M947.231 863L745 858.111L746.5 535.5C746.5 587.652 787.748 643.526 840.361 643.526H856.803C909.416 643.526 956 563.125 956 563.125" fill="black"/>
<path d="M747.149 663.685L571.369 665.241L342 500.5L568.769 153C667.06 153 747.149 234.917 747.149 336.017V663.167V663.685Z" fill="black"/>
<path d="M390.388 654.353L581.25 655.908L568.769 520.071V153C470.477 153 390.388 233.362 390.388 332.906V654.353Z" fill="black"/>
<path d="M417.431 237.509C487.119 237.509 399.749 284.689 399.749 354.163L443.954 625.319C443.954 694.793 343.063 651.761 273.375 651.761L279.095 702.052C209.407 702.052 147 766.341 147 696.867C147 696.867 148.779 645.146 154.5 627C158.441 614.5 179.5 579 179.5 579" fill="black"/>
</g>
<defs>
<clipPath id="clip0_2049_65">
<rect width="1037" height="1025" fill="white" transform="translate(147 153)"/>
</clipPath>
</defs>
</svg>
