<svg width="207" height="44" viewBox="0 0 207 44" fill="none" xmlns="http://www.w3.org/2000/svg">
<path d="M25.5305 25.2284V42.9554H20.7425V26.2829C20.7425 24.8389 20.391 23.5279 19.688 22.3499C18.985 21.1719 18.0445 20.2409 16.8665 19.5569C15.6885 18.8539 14.3775 18.5024 12.9335 18.5024C11.5085 18.5024 10.1975 18.8539 9.0005 19.5569C7.8225 20.2409 6.882 21.1719 6.179 22.3499C5.476 23.5279 5.1245 24.8389 5.1245 26.2829V42.9554H0.336504V14.4554H5.1245V18.0179C6.1315 16.6879 7.4045 15.6334 8.9435 14.8544C10.4825 14.0564 12.1545 13.6574 13.9595 13.6574C16.0875 13.6574 18.0255 14.1799 19.7735 15.2249C21.5405 16.2509 22.937 17.6379 23.963 19.3859C25.008 21.1339 25.5305 23.0814 25.5305 25.2284ZM43.2134 43.6964C40.5914 43.6964 38.1974 43.0219 36.0314 41.6729C33.8844 40.3239 32.1649 38.5189 30.8729 36.2579C29.5999 33.9779 28.9634 31.4604 28.9634 28.7054C28.9634 26.6154 29.3339 24.6679 30.0749 22.8629C30.8159 21.0389 31.8324 19.4429 33.1244 18.0749C34.4354 16.6879 35.9554 15.6049 37.6844 14.8259C39.4134 14.0469 41.2564 13.6574 43.2134 13.6574C45.3604 13.6574 47.3269 14.0944 49.1129 14.9684C50.9179 15.8234 52.4569 17.0204 53.7299 18.5594C55.0219 20.0984 55.9814 21.8844 56.6084 23.9174C57.2544 25.9504 57.4919 28.1259 57.3209 30.4439H34.0649C34.2929 32.0589 34.8249 33.5029 35.6609 34.7759C36.4969 36.0299 37.5609 37.0274 38.8529 37.7684C40.1639 38.5094 41.6174 38.8894 43.2134 38.9084C44.9234 38.9084 46.4719 38.4714 47.8589 37.5974C49.2459 36.7044 50.3669 35.4884 51.2219 33.9494L56.0954 35.0894C54.9554 37.6164 53.2359 39.6874 50.9369 41.3024C48.6379 42.8984 46.0634 43.6964 43.2134 43.6964ZM33.9224 26.6819H52.5044C52.3524 25.0859 51.8394 23.6324 50.9654 22.3214C50.0914 20.9914 48.9799 19.9274 47.6309 19.1294C46.2819 18.3314 44.8094 17.9324 43.2134 17.9324C41.6174 17.9324 40.1544 18.3219 38.8244 19.1009C37.4944 19.8799 36.3924 20.9344 35.5184 22.2644C34.6634 23.5754 34.1314 25.0479 33.9224 26.6819ZM74.4966 43.6964C71.8746 43.6964 69.4806 43.0219 67.3146 41.6729C65.1676 40.3239 63.4481 38.5189 62.1561 36.2579C60.8831 33.9779 60.2466 31.4604 60.2466 28.7054C60.2466 26.6154 60.6171 24.6679 61.3581 22.8629C62.0991 21.0389 63.1156 19.4429 64.4076 18.0749C65.7186 16.6879 67.2386 15.6049 68.9676 14.8259C70.6966 14.0469 72.5396 13.6574 74.4966 13.6574C77.1186 13.6574 79.5031 14.3319 81.6501 15.6809C83.8161 17.0299 85.5356 18.8444 86.8086 21.1244C88.1006 23.4044 88.7466 25.9314 88.7466 28.7054C88.7466 30.7764 88.3761 32.7144 87.6351 34.5194C86.8941 36.3244 85.8681 37.9204 84.5571 39.3074C83.2651 40.6754 81.7546 41.7489 80.0256 42.5279C78.3156 43.3069 76.4726 43.6964 74.4966 43.6964ZM74.4966 38.9084C76.2826 38.9084 77.8881 38.4429 79.3131 37.5119C80.7571 36.5619 81.8876 35.3174 82.7046 33.7784C83.5406 32.2204 83.9586 30.5294 83.9586 28.7054C83.9586 26.8434 83.5311 25.1334 82.6761 23.5754C81.8401 22.0174 80.7096 20.7729 79.2846 19.8419C77.8596 18.9109 76.2636 18.4454 74.4966 18.4454C72.7106 18.4454 71.1051 18.9204 69.6801 19.8704C68.2551 20.8014 67.1246 22.0459 66.2886 23.6039C65.4526 25.1619 65.0346 26.8624 65.0346 28.7054C65.0346 30.6054 65.4621 32.3344 66.3171 33.8924C67.1721 35.4314 68.3216 36.6569 69.7656 37.5689C71.2096 38.4619 72.7866 38.9084 74.4966 38.9084ZM116.238 0.205441H121.026V42.9554H116.238V38.1104C115.269 39.7824 113.967 41.1314 112.333 42.1574C110.699 43.1834 108.78 43.6964 106.576 43.6964C104.505 43.6964 102.567 43.3069 100.762 42.5279C98.9575 41.7489 97.3615 40.6754 95.9745 39.3074C94.6065 37.9204 93.533 36.3244 92.754 34.5194C91.975 32.7144 91.5855 30.7764 91.5855 28.7054C91.5855 26.6344 91.975 24.6964 92.754 22.8914C93.533 21.0674 94.6065 19.4714 95.9745 18.1034C97.3615 16.7164 98.9575 15.6334 100.762 14.8544C102.567 14.0754 104.505 13.6859 106.576 13.6859C108.78 13.6859 110.699 14.1989 112.333 15.2249C113.967 16.2509 115.269 17.5999 116.238 19.2719V0.205441ZM106.633 39.0509C108.514 39.0509 110.139 38.5949 111.507 37.6829C112.894 36.7519 113.958 35.4979 114.699 33.9209C115.459 32.3439 115.839 30.6054 115.839 28.7054C115.839 26.7674 115.459 25.0194 114.699 23.4614C113.939 21.8844 112.865 20.6399 111.478 19.7279C110.11 18.7969 108.495 18.3314 106.633 18.3314C104.752 18.3314 103.042 18.7969 101.503 19.7279C99.9835 20.6589 98.7675 21.9129 97.8555 23.4899C96.9435 25.0479 96.4875 26.7864 96.4875 28.7054C96.4875 30.6244 96.953 32.3724 97.884 33.9494C98.815 35.5074 100.05 36.7519 101.589 37.6829C103.128 38.5949 104.809 39.0509 106.633 39.0509ZM140.125 43.6964C137.503 43.6964 135.109 43.0219 132.943 41.6729C130.796 40.3239 129.076 38.5189 127.784 36.2579C126.511 33.9779 125.875 31.4604 125.875 28.7054C125.875 26.6154 126.245 24.6679 126.986 22.8629C127.727 21.0389 128.744 19.4429 130.036 18.0749C131.347 16.6879 132.867 15.6049 134.596 14.8259C136.325 14.0469 138.168 13.6574 140.125 13.6574C142.272 13.6574 144.238 14.0944 146.024 14.9684C147.829 15.8234 149.368 17.0204 150.641 18.5594C151.933 20.0984 152.893 21.8844 153.52 23.9174C154.166 25.9504 154.403 28.1259 154.232 30.4439H130.976C131.204 32.0589 131.736 33.5029 132.572 34.7759C133.408 36.0299 134.472 37.0274 135.764 37.7684C137.075 38.5094 138.529 38.8894 140.125 38.9084C141.835 38.9084 143.383 38.4714 144.77 37.5974C146.157 36.7044 147.278 35.4884 148.133 33.9494L153.007 35.0894C151.867 37.6164 150.147 39.6874 147.848 41.3024C145.549 42.8984 142.975 43.6964 140.125 43.6964ZM130.834 26.6819H149.416C149.264 25.0859 148.751 23.6324 147.877 22.3214C147.003 20.9914 145.891 19.9274 144.542 19.1294C143.193 18.3314 141.721 17.9324 140.125 17.9324C138.529 17.9324 137.066 18.3219 135.736 19.1009C134.406 19.8799 133.304 20.9344 132.43 22.2644C131.575 23.5754 131.043 25.0479 130.834 26.6819ZM167.839 43.4969C166.3 43.4399 164.799 43.1549 163.336 42.6419C161.892 42.1099 160.619 41.3974 159.517 40.5044C158.434 39.5924 157.645 38.5474 157.151 37.3694L161.255 35.6024C161.54 36.2484 162.053 36.8564 162.794 37.4264C163.535 37.9964 164.39 38.4524 165.359 38.7944C166.328 39.1364 167.307 39.3074 168.295 39.3074C169.34 39.3074 170.318 39.1459 171.23 38.8229C172.142 38.4999 172.883 38.0249 173.453 37.3979C174.042 36.7519 174.337 35.9824 174.337 35.0894C174.337 34.1394 174.014 33.3984 173.368 32.8664C172.741 32.3154 171.943 31.8879 170.974 31.5839C170.024 31.2609 169.055 30.9569 168.067 30.6719C166.11 30.1779 164.362 29.5889 162.823 28.9049C161.284 28.2019 160.068 27.3184 159.175 26.2544C158.301 25.1714 157.864 23.7939 157.864 22.1219C157.864 20.3549 158.348 18.8254 159.317 17.5334C160.305 16.2414 161.597 15.2439 163.193 14.5409C164.789 13.8379 166.499 13.4864 168.323 13.4864C170.622 13.4864 172.722 13.9804 174.622 14.9684C176.522 15.9564 177.937 17.2959 178.868 18.9869L175.021 21.2384C174.698 20.5544 174.204 19.9559 173.539 19.4429C172.874 18.9109 172.114 18.4929 171.259 18.1889C170.404 17.8849 169.53 17.7234 168.637 17.7044C167.535 17.6664 166.499 17.8089 165.53 18.1319C164.58 18.4549 163.811 18.9489 163.222 19.6139C162.652 20.2599 162.367 21.0674 162.367 22.0364C162.367 22.9864 162.671 23.7084 163.279 24.2024C163.906 24.6964 164.713 25.0954 165.701 25.3994C166.708 25.6844 167.801 26.0169 168.979 26.3969C170.708 26.9479 172.323 27.5844 173.824 28.3064C175.325 29.0284 176.531 29.9309 177.443 31.0139C178.374 32.0969 178.83 33.4364 178.811 35.0324C178.811 36.7804 178.289 38.3099 177.244 39.6209C176.199 40.9129 174.84 41.9009 173.168 42.5849C171.515 43.2689 169.739 43.5729 167.839 43.4969ZM206.807 42.9554H201.307L193.726 29.8739L188.482 36.1439V42.9554H183.694V0.205441H188.482V28.7054L200.423 14.4554H206.665L196.975 25.9979L206.807 42.9554Z" fill="white"/>
</svg>
